PathFileType	4	(X/Y/Z)	3_coords_data.trc
DataRate	CameraRate	NumFrames	NumMarkers	Units	OrigDataRate	OrigDataStartFrame	OrigNumFrames
30.0	30.0	9	21	m	30.0	20	49
Frame#	Time	THUMB_TIP	THUMB_IP	THUMB_MCP	THUMB_CMC	INDEX_TIP	INDEX_DIP	INDEX_PIP	INDEX_MCP	MIDDLE_TIP	MIDDLE_DIP	MIDDLE_PIP	MIDDLE_MCP	RING_TIP	RING_DIP	RING_PIP	RING_MCP	PINKY_TIP	PINKY_DIP	PINKY_PIP	PINKY_MCP	WRIST
X1	Y1	Z1	X2	Y2	Z2	X3	Y3	Z3	X4	Y4	Z4	X5	Y5	Z5	X6	Y6	Z6	X7	Y7	Z7	X8	Y8	Z8	X9	Y9	Z9	X10	Y10	Z10	X11	Y11	Z11	X12	Y12	Z12	X13	Y13	Z13	X14	Y14	Z14	X15	Y15	Z15	X16	Y16	Z16	X17	Y17	Z17	X18	Y18	Z18	X19	Y19	Z19	X20	Y20	Z20	X21	Y21	Z21
19	0.6333333333333333	-0.07145870208740235	-0.13470599365234376	0.983083984375	-0.07591490173339843	-0.11383100128173829	1.0023300170898437	-0.08575920104980468	-0.09675820159912109	1.0281400146484374	-0.09155740356445312	-0.065783203125	1.049530029296875	-0.05827320098876953	-0.08769380187988281	0.9102210083007812	-0.06539230346679688	-0.08463569641113282	0.9327890014648438	-0.07340160369873047	-0.08097440338134766	0.9557730102539063	-0.08509880065917969	-0.0737864990234375	0.991780029296875	-0.05916630172729492	-0.05710380172729492	0.8995640258789063	-0.0667593994140625	-0.055778499603271484	0.9238140258789063	-0.07644409942626954	-0.054053901672363285	0.9522459716796875	-0.08747589874267578	-0.051783401489257815	0.98777001953125	-0.05435390090942383	-0.013920299530029297	0.9179459838867188	-0.06528939819335937	-0.01799410057067871	0.93847900390625	-0.07773220062255859	-0.02323159980773926	0.9615889892578126	-0.09080300140380859	-0.032052501678466794	0.9954420166015625	-0.05600790023803711	0.015919699668884277	0.9527630004882812	-0.0667947998046875	0.00782160997390747	0.9674869995117188	-0.07672029876708984	-0.0005941140055656431	0.9815419921875	-0.0865635986328125	-0.014769200325012208	1.004010009765625	-0.11617500305175782	-0.0402849006652832	1.0682099609375
20	0.6666666666666666	-0.0715363006591797	-0.13452799987792968	0.98293701171875	-0.075956298828125	-0.11373100280761719	1.0020599975585938	-0.08586080169677734	-0.09660610198974609	1.02793994140625	-0.09173719787597656	-0.06557080078125	1.0494200439453125	-0.05838449859619141	-0.08753109741210938	0.91006201171875	-0.06552259826660156	-0.08451609802246093	0.9326019897460938	-0.07350389862060547	-0.08087169647216796	0.9555449829101562	-0.08517819976806641	-0.07374649810791016	0.9915679931640625	-0.05929460144042969	-0.05696910095214844	0.8994099731445313	-0.06690260314941407	-0.055696399688720706	0.9236810302734375	-0.07659639739990234	-0.05397840118408203	0.9521270141601562	-0.08750420379638672	-0.05164289855957031	0.9877020263671875	-0.05445890045166016	-0.01377280044555664	0.9177520141601563	-0.06538760375976563	-0.017862300872802734	0.9383140258789062	-0.0779105987548828	-0.02313360023498535	0.9615009765625	-0.09095400238037109	-0.03204819869995117	0.9953309936523438	-0.056148998260498045	0.016035600662231444	0.952572021484375	-0.06695079803466797	0.007973859786987305	0.9673179931640625	-0.0769010009765625	-0.00045128598809242206	0.981385986328125	-0.08675659942626954	-0.014613300323486329	1.0039000244140626	-0.11619000244140625	-0.04027069854736328	1.0679300537109375
21	0.7	-0.07172830200195313	-0.13437600708007813	0.9826530151367188	-0.07615750122070312	-0.11346499633789063	1.0019299926757812	-0.08604229736328126	-0.0964719009399414	1.0277900390625	-0.09176969909667969	-0.06547810363769531	1.0491800537109375	-0.05860770034790039	-0.08733489990234375	0.9098610229492188	-0.0657030029296875	-0.08430570220947266	0.9324359741210938	-0.0736969985961914	-0.08066539764404297	0.955510009765625	-0.08533789825439453	-0.07355729675292969	0.9913820190429687	-0.05943550109863281	-0.056774898529052736	0.8992670288085938	-0.06711669921875	-0.05548500061035156	0.9235540161132813	-0.07681289672851563	-0.053765098571777345	0.952093017578125	-0.08766639709472657	-0.051434501647949216	0.9875	-0.05462739944458008	-0.01360509967803955	0.9176160278320312	-0.06554859924316406	-0.01771430015563965	0.9381950073242188	-0.0780518035888672	-0.022986400604248048	0.9613499755859375	-0.09104630279541015	-0.03181010055541992	0.9952979736328125	-0.05622809982299805	0.016193199157714843	0.9524290161132812	-0.06713800048828125	0.008089539527893066	0.967239013671875	-0.07706269836425782	-0.00032890099287033003	0.9813259887695313	-0.08682420349121094	-0.014486000061035157	1.003780029296875	-0.11644000244140625	-0.040161598205566404	1.06797998046875
22	0.7333333333333333	-0.07188079833984375	-0.13423199462890625	0.9826400146484375	-0.07629940032958984	-0.11339299774169923	1.00177001953125	-0.08617919921875	-0.09636299896240234	1.02768994140625	-0.09202040100097657	-0.06543949890136719	1.04918994140625	-0.05875839996337891	-0.08721109771728516	0.909718017578125	-0.06588909912109375	-0.08420909881591797	0.9323099975585938	-0.07388919830322266	-0.08060859680175782	0.9553809814453125	-0.0854717025756836	-0.07345220184326172	0.9912529907226563	-0.05955960083007812	-0.05670140075683594	0.8991610107421875	-0.06725350189208984	-0.0553739013671875	0.9234340209960937	-0.0769490966796875	-0.05369179916381836	0.9518930053710938	-0.08783509826660156	-0.051400501251220705	0.9875230102539062	-0.05478739929199219	-0.013553799629211426	0.917489990234375	-0.06573979949951173	-0.017672000885009767	0.938031982421875	-0.07817400360107422	-0.022922500610351563	0.961135986328125	-0.09117829895019532	-0.031763700485229494	0.9951309814453125	-0.056380599975585935	0.016253599166870115	0.9522420043945312	-0.067277099609375	0.008159250259399413	0.96710498046875	-0.07719879913330079	-0.000227467998862266	0.9811539916992188	-0.08702069854736329	-0.014392000198364258	1.0036599731445313	-0.1164990005493164	-0.040079498291015626	1.06775
23	0.7666666666666667	-0.07200910186767578	-0.13418600463867186	0.9824539794921875	-0.07648770141601563	-0.11335199737548828	1.0015800170898437	-0.08632399749755859	-0.09632340240478515	1.02747998046875	-0.09216269683837891	-0.06539790344238282	1.049010009765625	-0.05891999816894531	-0.08711620330810547	0.9096010131835938	-0.0660208969116211	-0.08413099670410157	0.9321480102539063	-0.07399140167236327	-0.08053730010986328	0.9551680297851562	-0.08572630310058593	-0.07344660186767578	0.9911699829101562	-0.05964459991455078	-0.056620098114013674	0.8990709838867188	-0.06731620025634766	-0.055312801361083984	0.9232570190429688	-0.07703880310058593	-0.053585498809814454	0.9517429809570312	-0.0881051025390625	-0.05128279876708984	0.9874199829101562	-0.05485599899291992	-0.013533499717712403	0.917375	-0.06582440185546876	-0.017625299453735352	0.9379650268554688	-0.07832440185546875	-0.022843700408935547	0.9611220092773437	-0.09136689758300781	-0.031637100219726565	0.9950089721679688	-0.056508399963378905	0.016269699096679687	0.9521079711914062	-0.06738459777832032	0.008206170082092285	0.96693798828125	-0.07726260375976562	-0.000185645997524261	0.980926025390625	-0.08717780303955078	-0.014292400360107422	1.0035399780273437	-0.11688400268554687	-0.039807300567626956	1.067760009765625
24	0.8	-0.0721270980834961	-0.13414399719238282	0.982176025390625	-0.07656520080566406	-0.11327700042724609	1.0013800048828125	-0.08644490051269531	-0.09628440093994141	1.0273599853515625	-0.09216259765625	-0.06536350250244141	1.0488199462890626	-0.05906159973144531	-0.08712699890136719	0.9094429931640625	-0.06616110229492188	-0.08410800170898437	0.9320089721679687	-0.07416190338134766	-0.08052179718017578	0.954947998046875	-0.08585469818115235	-0.07340560150146484	0.9909240112304688	-0.05974319839477539	-0.05662149810791016	0.8989110107421875	-0.06744819641113281	-0.055304000854492184	0.9230999755859375	-0.07717579650878906	-0.053607200622558596	0.9515009765625	-0.08816210174560547	-0.05128670120239258	0.987197021484375	-0.054940601348876954	-0.013491999626159669	0.9172369995117188	-0.065947998046875	-0.017595800399780273	0.937791015625	-0.07842880249023437	-0.022831399917602538	0.9608900146484375	-0.09137629699707031	-0.03163059997558594	0.9947919921875	-0.05663119888305664	0.01619659996032715	0.9518560180664063	-0.06753389739990234	0.008139490127563476	0.966739013671875	-0.07743820190429687	-0.00020719699561595902	0.9808209838867188	-0.08739749908447265	-0.01430109977722168	1.0035	-0.11670600128173828	-0.0400536994934082	1.0674000244140625
25	0.8333333333333334	-0.07213469696044922	-0.1341269989013672	0.9819810180664063	-0.07662709808349609	-0.11326200103759766	1.0011799926757812	-0.08650640106201171	-0.09630750274658204	1.0271500244140626	-0.09229969787597657	-0.06545249938964844	1.0486600341796875	-0.05910010147094726	-0.08715689849853515	0.909218017578125	-0.06620379638671875	-0.08412359619140625	0.9317520141601563	-0.07421890258789063	-0.08055139923095703	0.954697998046875	-0.08584480285644532	-0.07342430114746094	0.9907169799804687	-0.05979090118408203	-0.05663719940185547	0.8987039794921875	-0.06750270080566406	-0.05533829879760742	0.922948974609375	-0.07722239685058593	-0.05364749908447266	0.9513090209960937	-0.08817250061035156	-0.05134109878540039	0.9868250122070312	-0.055032398223876955	-0.013538499832153321	0.9170059814453125	-0.06598789978027343	-0.01763050079345703	0.937593994140625	-0.07849839782714843	-0.022855499267578124	0.9607239990234375	-0.09136900329589843	-0.03175790023803711	0.9946090087890626	-0.05669800186157226	0.016098300933837892	0.9515759887695312	-0.06760369873046874	0.008065079689025879	0.9664390258789063	-0.07750379943847656	-0.00027288201451301504	0.9805679931640625	-0.08727790069580078	-0.014347700119018555	1.0031599731445313	-0.11680100250244141	-0.040022499084472654	1.0672900390625
26	0.8666666666666667	-0.0721052017211914	-0.13414399719238282	0.9818920288085937	-0.07660179901123047	-0.11332399749755859	1.0010800170898437	-0.08647709655761719	-0.09640200042724609	1.027030029296875	-0.09228250122070313	-0.06549160003662109	1.0485699462890625	-0.059163700103759764	-0.08727980041503906	0.9090430297851563	-0.06625689697265626	-0.08428250122070312	0.93160400390625	-0.07417669677734375	-0.0806250991821289	0.9547069702148437	-0.0858916015625	-0.0735271987915039	0.990656982421875	-0.05981679916381836	-0.05676129913330078	0.8985260009765625	-0.06749089813232421	-0.05544100189208984	0.922802978515625	-0.0771895980834961	-0.05376520156860352	0.95125	-0.08820619964599609	-0.05149319839477539	0.98681298828125	-0.05503129959106445	-0.013613699913024902	0.9168309936523438	-0.06598729705810547	-0.017733200073242188	0.937458984375	-0.07852140045166016	-0.022971900939941406	0.9606199951171875	-0.0915554962158203	-0.03178240013122559	0.9945139770507813	-0.05664250183105469	0.01592679977416992	0.9513569946289062	-0.06753179931640625	0.007948450088500977	0.966239990234375	-0.07745449829101562	-0.00037665098905563304	0.9803939819335937	-0.08723459625244141	-0.014432499885559082	1.002989990234375	-0.11708200073242188	-0.03983819961547851	1.0673199462890626
27	0.9	-0.07203939819335937	-0.13436900329589843	0.9817559814453125	-0.07655509948730468	-0.11344200134277344	1.0010499877929688	-0.08644680023193359	-0.09650689697265626	1.02697998046875	-0.09210970306396485	-0.06559960174560547	1.0483699951171874	-0.05897829818725586	-0.0875542984008789	0.9089229736328125	-0.06613480377197266	-0.08447419738769531	0.9315549926757812	-0.07416639709472657	-0.08092639923095703	0.95452197265625	-0.08589839935302734	-0.07369219970703125	0.9906710205078125	-0.05964139938354492	-0.05702159881591797	0.898427978515625	-0.06739739990234375	-0.055669998168945314	0.92277099609375	-0.07705799865722657	-0.05393709945678711	0.9511179809570313	-0.08818379974365234	-0.05169039916992187	0.9866959838867188	-0.05486220169067383	-0.013895000457763672	0.9167230224609375	-0.06578880310058594	-0.01797130012512207	0.93727001953125	-0.07835870361328125	-0.023173099517822267	0.960447021484375	-0.09145690155029297	-0.031955299377441404	0.9943510131835938	-0.056527698516845706	0.015690799713134765	0.951280029296875	-0.06740029907226562	0.007695710182189942	0.9661309814453125	-0.07732389831542968	-0.0006036009788513181	0.9802379760742187	-0.08716629791259765	-0.01463360023498535	1.0028699951171876	-0.11669400024414063	-0.04015409851074219	1.0669100341796875
